<svg width="1200" height="100" viewBox="0 0 1210 104" xmlns="http://www.w3.org/2000/svg"><title>wood</title><path d="M756.32 40.408l15.5 39.736 12.417-30.43 3.93 9.633L798.973 28l24.504 71.097 13.108-37.75 10.63 30.612 9.533-24.41 2.486 6.366 7.595-21.875 18.04 51.96H731.51l24.808-63.592zM640.452 17.3l-19.608 56.33-16.31-42.705-8.083 21.164-12.972-37.266L552.438 104h118.196l-30.18-86.7zM194.66 48.813l-12.48 35.855-10.383-27.183-5.145 13.472-8.257-23.72L138.635 104h75.237l-19.21-55.188zM103.437 2.89L80.57 68.58 61.548 18.778 52.12 43.46 36.994 0 .79 104h137.844L103.437 2.89zM1195.06 61.22l-9.674 27.792-8.048-21.07-3.988 10.442-6.4-18.387-15.316 44h58.32l-14.892-42.78zM288.5 37l16.008 41.46L319.5 47l4.372 9.172L335.502 23l25.377 72.39L379 49l14.564 37.28L405.002 57l3.206 8.207L418.002 37l23.264 67h-178.63L288.5 37zm676.702-14.766l19.535 50.598 18.297-38.394 5.334 11.193 14.192-40.48 30.972 88.345 22.115-56.615 17.772 45.496 13.957-35.733 3.912 10.016 11.952-34.425 28.39 81.766h-218l31.57-81.765z" fill="#4db6ac"/></svg>